<svg width="24" height="24" viewBox="0 0 24 24" fill="currentColor" xmlns="http://www.w3.org/2000/svg">
<path d="M20.9579 16.586C20.7481 16.3626 20.0076 15.702 18.6463 14.8281C17.275 13.9466 16.2637 13.3969 15.9736 13.2688C15.948 13.2574 15.9198 13.2533 15.8921 13.2567C15.8643 13.2602 15.8381 13.2712 15.8161 13.2885C15.3488 13.6529 14.5621 14.3223 14.5199 14.3584C14.2475 14.5919 14.2475 14.5919 14.0245 14.5192C13.6323 14.3906 12.4141 13.7437 11.3525 12.6797C10.291 11.6158 9.61073 10.3674 9.48215 9.97568C9.40862 9.75228 9.40862 9.75228 9.64287 9.47986C9.67903 9.43768 10.3488 8.65096 10.7133 8.18408C10.7305 8.16209 10.7415 8.13581 10.745 8.10806C10.7484 8.08031 10.7443 8.05214 10.7329 8.02658C10.6048 7.73608 10.0551 6.72517 9.17357 5.35385C8.29846 3.99297 7.63871 3.25247 7.41531 3.04273C7.39481 3.02339 7.36947 3.00993 7.34196 3.00378C7.31446 2.99763 7.2858 2.99901 7.25901 3.00778C6.47811 3.27614 5.72467 3.61855 5.00895 4.03034C4.31803 4.43198 3.66391 4.89383 3.05421 5.4105C3.03293 5.42859 3.01697 5.45214 3.00805 5.47861C2.99913 5.50509 2.99759 5.53349 3.00359 5.56077C3.08756 5.95212 3.48896 7.58581 4.73452 9.84871C6.00541 12.1582 6.88614 13.3415 8.75249 15.2014C10.6188 17.0613 11.8395 17.9951 14.1514 19.2659C16.4143 20.5115 18.0489 20.9133 18.4394 20.9965C18.4667 21.0024 18.4952 21.0008 18.5217 20.9919C18.5482 20.983 18.5719 20.9671 18.5901 20.9458C19.1067 20.3362 19.5684 19.682 19.9698 18.9911C20.3816 18.2754 20.724 17.5219 20.9924 16.7411C21.001 16.7145 21.0023 16.6861 20.9962 16.6588C20.9902 16.6316 20.9769 16.6064 20.9579 16.586Z" fill="currentColor"/>
</svg>
